<svg aria-hidden="true" style="position: absolute; width: 0; height: 0; overflow: hidden;" version="1.1" xmlns="http://www.w3.org/2000/svg" xmlns:xlink="http://www.w3.org/1999/xlink">
<defs>
<symbol id="icon-heart" viewBox="0 0 32 32">
<path d="M29.732 4.5c-1.512-1.476-3.601-2.214-6.268-2.214-0.738 0-1.491 0.128-2.259 0.384s-1.482 0.601-2.143 1.036c-0.661 0.434-1.229 0.842-1.706 1.223-0.495 0.397-0.937 0.795-1.357 1.214l0-0c-0.42-0.42-0.862-0.817-1.325-1.189l-0.032-0.025c-0.476-0.381-1.045-0.788-1.706-1.223s-1.375-0.78-2.143-1.036c-0.768-0.256-1.521-0.384-2.259-0.384-2.667 0-4.756 0.738-6.268 2.214s-2.268 3.524-2.268 6.143c0 0.798 0.14 1.619 0.42 2.464s0.598 1.566 0.955 2.161c0.357 0.595 0.762 1.175 1.214 1.741s0.783 0.955 0.991 1.169c0.208 0.214 0.372 0.369 0.491 0.465l11.143 10.75c0.214 0.214 0.476 0.322 0.786 0.322s0.572-0.107 0.786-0.322l11.125-10.715c2.726-2.726 4.089-5.404 4.089-8.035 0-2.619-0.756-4.667-2.268-6.142zM26.357 17l-10.357 9.982-10.375-10c-2.226-2.226-3.339-4.339-3.339-6.339 0-0.964 0.128-1.815 0.384-2.553s0.583-1.325 0.982-1.759c0.399-0.435 0.884-0.788 1.455-1.063s1.131-0.458 1.679-0.554c0.548-0.095 1.131-0.143 1.75-0.143s1.286 0.152 2 0.455c0.714 0.304 1.372 0.684 1.973 1.143s1.116 0.887 1.545 1.286c0.428 0.399 0.786 0.765 1.071 1.098 0.214 0.262 0.506 0.393 0.875 0.393s0.661-0.131 0.875-0.393c0.286-0.333 0.643-0.699 1.071-1.098s0.944-0.827 1.544-1.286c0.601-0.458 1.259-0.839 1.974-1.143s1.381-0.455 2-0.455 1.202 0.048 1.75 0.143c0.548 0.095 1.107 0.28 1.679 0.554s1.057 0.628 1.455 1.063c0.399 0.434 0.726 1.021 0.982 1.759s0.384 1.589 0.384 2.553c-0 2-1.119 4.119-3.357 6.357z"></path>
</symbol>
<symbol id="icon-menu" viewBox="0 0 32 32">
<path d="M0 5.76v1.28h32v-1.28zM0 15.36v1.28h32v-1.28zM0 24.96v1.28h32v-1.28z"></path>
</symbol>
<symbol id="icon-lupa" viewBox="0 0 32 32">
<path d="M13.44 1.92c-6.003 0-10.88 4.877-10.88 10.88s4.877 10.88 10.88 10.88c2.374 0 4.57-0.765 6.36-2.060l8.42 8.4 1.8-1.8-8.32-8.34c1.628-1.884 2.62-4.358 2.62-7.063 0-0.006 0-0.011 0-0.017v0.001c0-6.003-4.877-10.88-10.88-10.88zM13.44 3.2c5.31 0 9.6 4.29 9.6 9.6s-4.29 9.6-9.6 9.6-9.6-4.29-9.6-9.6 4.29-9.6 9.6-9.6z"></path>
</symbol>
<symbol id="icon-shoppingbasket" viewBox="0 0 32 32">
<path d="M24.732 32h-17.132c-1.613 0-2.925-1.312-2.925-2.923l-2.427-11.393c-0.917-0.455-1.519-1.382-1.519-2.417 0-1.513 1.231-2.743 2.743-2.743h25.055c1.512 0 2.743 1.23 2.743 2.743 0 0.885-0.427 1.696-1.142 2.206l-2.492 11.789c0.020 1.427-1.292 2.738-2.904 2.738zM3.472 14.322c-0.521 0.001-0.943 0.423-0.944 0.944v0c0 0.41 0.296 0.773 0.722 0.881 0.331 0.087 0.584 0.35 0.655 0.68l0.001 0.006 2.548 12.059c0.020 0.806 0.525 1.309 1.145 1.309h17.132c0.621-0 1.125-0.503 1.126-1.124v-0l2.592-12.356c0.059-0.276 0.237-0.5 0.477-0.621l0.005-0.002c0.333-0.162 0.54-0.483 0.54-0.832-0.001-0.521-0.423-0.943-0.944-0.944h-25.056z"></path>
<path d="M9.909 26.726c-0.001 0.349-0.284 0.632-0.633 0.633h-0.174c-0.349-0.001-0.632-0.284-0.633-0.633v-7.408c0.001-0.349 0.284-0.632 0.633-0.633h0.174c0.349 0.001 0.632 0.284 0.633 0.633v7.408zM14.543 26.726c-0.001 0.349-0.284 0.632-0.633 0.633h-0.174c-0.349-0.001-0.632-0.284-0.633-0.633v-7.408c0.001-0.349 0.284-0.632 0.633-0.633h0.174c0.349 0.001 0.632 0.284 0.633 0.633v7.408zM19.178 26.726c-0.001 0.349-0.284 0.632-0.633 0.633h-0.175c-0.349-0.001-0.632-0.284-0.633-0.633v-7.408c0.001-0.349 0.284-0.632 0.633-0.633h0.175c0.349 0.001 0.632 0.284 0.633 0.633v7.408zM23.812 26.726c-0.001 0.349-0.284 0.632-0.633 0.633h-0.175c-0.349-0.001-0.632-0.284-0.633-0.633v-7.408c0.001-0.349 0.284-0.632 0.633-0.633h0.174c0.349 0.001 0.632 0.284 0.633 0.633v7.408zM7.481 9.307c0.601-4.183 4.188-7.4 8.537-7.4s7.936 3.218 8.537 7.4c0.088 1.428 1.927 1.2 1.927 0-0.612-5.239-5.060-9.307-10.464-9.307s-9.852 4.068-10.464 9.307c-0 1.486 1.95 1.543 1.927 0z"></path>
</symbol>
<symbol id="icon-mob-menu-close" viewBox="0 0 32 32">
<path d="M23.734 10.304l-1.504-1.504-5.963 5.962-5.962-5.962-1.504 1.504 5.962 5.962-5.962 5.963 1.504 1.504 5.962-5.963 5.963 5.963 1.504-1.504-5.963-5.963 5.963-5.962z"></path>
</symbol>
<symbol id="icon-tel" viewBox="0 0 32 32">
<path d="M16 1.28c-8.122 0-14.72 6.598-14.72 14.72 0 2.611 0.716 5.047 1.91 7.174l-1.886 6.734c-0.015 0.052-0.024 0.111-0.024 0.172 0 0.354 0.287 0.64 0.64 0.64 0.055 0 0.107-0.007 0.158-0.020l-0.004 0.001 7.021-1.74c2.063 1.101 4.404 1.759 6.905 1.759 8.122 0 14.72-6.598 14.72-14.72s-6.598-14.72-14.72-14.72zM16 2.56c7.43 0 13.44 6.010 13.44 13.44s-6.010 13.44-13.44 13.44c-2.382 0-4.613-0.621-6.553-1.706-0.090-0.051-0.198-0.081-0.312-0.081-0.055 0-0.108 0.007-0.158 0.020l0.004-0.001-6.149 1.524 1.649-5.883c0.015-0.052 0.024-0.113 0.024-0.175 0-0.119-0.033-0.231-0.090-0.327l0.002 0.003c-1.179-1.999-1.857-4.324-1.857-6.814 0-7.43 6.010-13.44 13.44-13.44zM10.651 8.32c-0.41 0-0.996 0.153-1.478 0.671-0.289 0.312-1.494 1.485-1.494 3.549 0 2.151 1.492 4.008 1.672 4.246h0.001v0.001c-0.017-0.023 0.229 0.334 0.557 0.761s0.788 0.989 1.365 1.596c1.154 1.215 2.777 2.62 4.791 3.479 0.928 0.395 1.659 0.633 2.214 0.808 1.027 0.323 1.963 0.274 2.666 0.17 0.526-0.078 1.105-0.33 1.677-0.692s1.134-0.813 1.381-1.497c0.177-0.491 0.267-0.944 0.3-1.317 0.016-0.187 0.018-0.351 0.006-0.504s0.001-0.269-0.141-0.503c-0.298-0.489-0.635-0.502-0.988-0.676-0.196-0.097-0.753-0.369-1.311-0.635s-1.041-0.501-1.339-0.608c-0.188-0.068-0.418-0.165-0.749-0.128s-0.658 0.276-0.849 0.559c-0.18 0.268-0.907 1.125-1.129 1.378-0.003-0.002 0.016 0.007-0.071-0.036-0.274-0.136-0.609-0.251-1.105-0.512s-1.116-0.648-1.795-1.246v-0.001c-1.010-0.889-1.718-2.006-1.941-2.381 0.015-0.018-0.002 0.004 0.030-0.027l0.001-0.001c0.228-0.225 0.43-0.493 0.601-0.69 0.242-0.279 0.349-0.525 0.465-0.755 0.231-0.458 0.102-0.962-0.031-1.227v-0.001c0.009 0.018-0.072-0.161-0.16-0.369s-0.2-0.478-0.32-0.765c-0.24-0.575-0.507-1.22-0.666-1.598v-0.001c-0.187-0.445-0.441-0.765-0.773-0.92s-0.624-0.111-0.636-0.111h-0.001c-0.237-0.011-0.496-0.014-0.754-0.014zM10.651 9.6c0.247 0 0.49 0.003 0.694 0.012 0.21 0.010 0.197 0.011 0.156-0.008s0.015-0.025 0.134 0.258c0.156 0.37 0.425 1.017 0.665 1.594 0.12 0.288 0.233 0.559 0.322 0.771s0.139 0.331 0.195 0.444v0.001l0.001 0.001c0.055 0.109 0.050 0.039 0.031 0.078-0.135 0.268-0.153 0.334-0.29 0.491-0.208 0.24-0.42 0.507-0.533 0.617-0.098 0.097-0.276 0.247-0.386 0.541s-0.059 0.699 0.119 1.001c0.237 0.402 1.017 1.672 2.23 2.74 0.764 0.673 1.475 1.119 2.044 1.419s1.031 0.475 1.135 0.526c0.246 0.122 0.515 0.216 0.828 0.179s0.582-0.227 0.754-0.421l0.001-0.001c0.228-0.259 0.907-1.034 1.233-1.511 0.014 0.005 0.009 0.001 0.117 0.040v0.001h0.001c0.049 0.018 0.668 0.295 1.22 0.558s1.112 0.536 1.294 0.626c0.263 0.13 0.387 0.215 0.419 0.215 0.002 0.056 0.004 0.117-0.004 0.21-0.022 0.257-0.091 0.613-0.229 0.994-0.067 0.186-0.419 0.571-0.861 0.851s-0.982 0.478-1.181 0.508c-0.6 0.088-1.313 0.121-2.095-0.125-0.543-0.17-1.219-0.391-2.095-0.764-1.777-0.758-3.286-2.047-4.365-3.183-0.539-0.568-0.971-1.096-1.279-1.496s-0.441-0.607-0.553-0.754l-0.001-0.001c-0.198-0.262-1.412-1.951-1.412-3.473 0-1.61 0.748-2.241 1.152-2.678 0.212-0.229 0.445-0.262 0.539-0.262z"></path>
</symbol>
</defs>
</svg>
